ffmpeg version 3.4.8-0ubuntu0.2 Copyright (c) 2000-2020 the FFmpeg developers
  built with gcc 7 (Ubuntu 7.5.0-3ubuntu1~18.04)
  configuration: --prefix=/usr --extra-version=0ubuntu0.2 --toolchain=hardened --libdir=/usr/lib/x86_64-linux-gnu --incdir=/usr/include/x86_64-linux-gnu --enable-gpl --disable-stripping --enable-avresample --enable-avisynth --enable-gnutls --enable-ladspa --enable-libass --enable-libbluray --enable-libbs2b --enable-libcaca --enable-libcdio --enable-libflite --enable-libfontconfig --enable-libfreetype --enable-libfribidi --enable-libgme --enable-libgsm --enable-libmp3lame --enable-libmysofa --enable-libopenjpeg --enable-libopenmpt --enable-libopus --enable-libpulse --enable-librubberband --enable-librsvg --enable-libshine --enable-libsnappy --enable-libsoxr --enable-libspeex --enable-libssh --enable-libtheora --enable-libtwolame --enable-libvorbis --enable-libvpx --enable-libwavpack --enable-libwebp --enable-libx265 --enable-libxml2 --enable-libxvid --enable-libzmq --enable-libzvbi --enable-omx --enable-openal --enable-opengl --enable-sdl2 --enable-libdc1394 --enable-libdrm --enable-libiec61883 --enable-chromaprint --enable-frei0r --enable-libopencv --enable-libx264 --enable-shared
  libavutil      55. 78.100 / 55. 78.100
  libavcodec     57.107.100 / 57.107.100
  libavformat    57. 83.100 / 57. 83.100
  libavdevice    57. 10.100 / 57. 10.100
  libavfilter     6.107.100 /  6.107.100
  libavresample   3.  7.  0 /  3.  7.  0
  libswscale      4.  8.100 /  4.  8.100
  libswresample   2.  9.100 /  2.  9.100
  libpostproc    54.  7.100 / 54.  7.100
[rawvideo @ 0x5617f71fca20] Estimating duration from bitrate, this may be inaccurate
Input #0, rawvideo, from '../../SVC-Encoder-20220109T061506Z-001/SVC-Encoder/Dataset/RollerCoaster/ERP_8x8/tile_yuv/Tile_63_480x240.yuv':
  Duration: 00:00:10.00, start: 0.000000, bitrate: 41472 kb/s
    Stream #0:0: Video: rawvideo (I420 / 0x30323449), yuv420p, 480x240, 41472 kb/s, 30 tbr, 30 tbn, 30 tbc
Stream mapping:
  Stream #0:0 -> #0:0 (rawvideo (native) -> h264 (libx264))
Press [q] to stop, [?] for help
[libx264 @ 0x5617f7209c60] using cpu capabilities: MMX2 SSE2Fast LZCNT SSSE3 SSE4.2 AVX
[libx264 @ 0x5617f7209c60] profile High, level 2.1
Output #0, rawvideo, to 'RollerCoaster_Tile_63_480x240_x264_QP_20.h264':
  Metadata:
    encoder         : Lavf57.83.100
    Stream #0:0: Video: h264 (libx264), yuv420p, 480x240, q=-1--1, 30 fps, 30 tbn, 30 tbc
    Metadata:
      encoder         : Lavc57.107.100 libx264
    Side data:
      cpb: bitrate max/min/avg: 0/0/0 buffer size: 0 vbv_delay: -1
frame=  148 fps=0.0 q=26.0 PSNR=Y:nan U:nan V:nan *:nan size=      73kB time=00:00:03.50 bitrate= 171.0kbits/s speed=6.99x    frame=  300 fps=272 q=26.0 LPSNR=Y:inf U:inf V:inf *:inf size=     193kB time=00:00:09.93 bitrate= 159.0kbits/s speed=9.01x    
video:193kB audio:0kB subtitle:0kB other streams:0kB global headers:0kB muxing overhead: 0.000000%
[libx264 @ 0x5617f7209c60] frame I:2     Avg QP:18.78  size: 10554  PSNR Mean Y:50.16 U:51.76 V:51.25 Avg:50.56 Global:50.49
[libx264 @ 0x5617f7209c60] frame P:78    Avg QP:19.81  size:  1539  PSNR Mean Y:48.29 U:50.89 V:50.50 Avg:48.95 Global:48.92
[libx264 @ 0x5617f7209c60] frame B:220   Avg QP:25.41  size:   255  PSNR Mean Y:48.07 U:50.74 V:50.34 Avg:48.74 Global:48.70
[libx264 @ 0x5617f7209c60] consecutive B-frames:  1.0%  2.7%  3.0% 93.3%
[libx264 @ 0x5617f7209c60] mb I  I16..4: 30.4% 44.3% 25.2%
[libx264 @ 0x5617f7209c60] mb P  I16..4:  4.5%  1.0%  0.5%  P16..4: 43.6% 12.6%  5.7%  0.0%  0.0%    skip:32.2%
[libx264 @ 0x5617f7209c60] mb B  I16..4:  0.5%  0.0%  0.0%  B16..8: 35.3%  2.0%  0.1%  direct: 0.1%  skip:62.1%  L0:47.5% L1:50.4% BI: 2.1%
[libx264 @ 0x5617f7209c60] 8x8 transform intra:22.1% inter:76.6%
[libx264 @ 0x5617f7209c60] coded y,uvDC,uvAC intra: 23.2% 50.9% 14.7% inter: 6.0% 8.3% 0.1%
[libx264 @ 0x5617f7209c60] i16 v,h,dc,p:  9% 75% 11%  5%
[libx264 @ 0x5617f7209c60] i8 v,h,dc,ddl,ddr,vr,hd,vl,hu:  5% 40% 35%  3%  3%  1%  5%  2%  7%
[libx264 @ 0x5617f7209c60] i4 v,h,dc,ddl,ddr,vr,hd,vl,hu:  7% 63% 20%  1%  1%  1%  5%  0%  2%
[libx264 @ 0x5617f7209c60] i8c dc,h,v,p: 24% 69%  4%  3%
[libx264 @ 0x5617f7209c60] Weighted P-Frames: Y:2.6% UV:0.0%
[libx264 @ 0x5617f7209c60] ref P L0: 56.1%  9.0% 27.6%  7.3%  0.1%
[libx264 @ 0x5617f7209c60] ref B L0: 74.1% 20.5%  5.3%
[libx264 @ 0x5617f7209c60] ref B L1: 87.7% 12.3%
[libx264 @ 0x5617f7209c60] PSNR Mean Y:48.138 U:50.786 V:50.391 Avg:48.807 Global:48.768 kb/s:157.89
